<mxfile host="65bd71144e">
    <diagram id="T90BBoScZHubmJJpquBQ" name="Page-1">
        <mxGraphModel dx="601" dy="516" grid="1" gridSize="10" guides="1" tooltips="1" connect="1" arrows="1" fold="1" page="1" pageScale="1" pageWidth="827" pageHeight="1169" math="0" shadow="0">
            <root>
                <mxCell id="0"/>
                <mxCell id="1" parent="0"/>
                <mxCell id="3" value="CLICommand" style="swimlane;fontStyle=0;childLayout=stackLayout;horizontal=1;startSize=26;fillColor=none;horizontalStack=0;resizeParent=1;resizeParentMax=0;resizeLast=0;collapsible=1;marginBottom=0;" vertex="1" parent="1">
                    <mxGeometry x="240" y="210" width="160" height="410" as="geometry"/>
                </mxCell>
                <mxCell id="4" value="+ SELECT&#10;+ SELECTREQUEST&#10;+ ADDÂ &#10;+ CHANGE&#10;+ DELETE&#10;+ SEARCH&#10;+ SEARCHSELECTING&#10;+ SHOWSELECTED&#10;+ SHOW&#10;+ LOAD&#10;+ SAVE&#10;+ HELP&#10;+ UNKNOWN&#10;+ EXIT&#10;+ NONE&#10;+ ADDPHONE&#10;+ SETEMAIL&#10;+ SETADDRESS&#10;+ SETBIRTHDAY&#10;+ PHONE&#10;+ TAGS&#10;+ SEARCHBYTAG&#10;+ SORTBYTAGS&#10;&#10;- missing_()&#10;+ max_command_words()" style="text;strokeColor=none;fillColor=none;align=left;verticalAlign=top;spacingLeft=4;spacingRight=4;overflow=hidden;rotatable=0;points=[[0,0.5],[1,0.5]];portConstraint=eastwest;" vertex="1" parent="3">
                    <mxGeometry y="26" width="160" height="384" as="geometry"/>
                </mxCell>
                <mxCell id="7" value="cli_command" style="swimlane;" vertex="1" parent="1">
                    <mxGeometry x="120" y="40" width="420" height="690" as="geometry"/>
                </mxCell>
            </root>
        </mxGraphModel>
    </diagram>
</mxfile>